<?xml version="1.0" encoding="UTF-8" standalone="no"?><svg xmlns="http://www.w3.org/2000/svg" xmlns:xlink="http://www.w3.org/1999/xlink" contentScriptType="application/ecmascript" contentStyleType="text/css" height="345px" preserveAspectRatio="none" style="width:891px;height:345px;background:#FFFFFF;" version="1.1" viewBox="0 0 891 345" width="891px" zoomAndPan="magnify"><defs><filter height="300%" id="fgc6k8becd71p" width="300%" x="-1" y="-1"><feGaussianBlur result="blurOut" stdDeviation="2.0"/><feColorMatrix in="blurOut" result="blurOut2" type="matrix" values="0 0 0 0 0 0 0 0 0 0 0 0 0 0 0 0 0 0 .4 0"/><feOffset dx="4.0" dy="4.0" in="blurOut2" result="blurOut3"/><feBlend in="SourceGraphic" in2="blurOut3" mode="normal"/></filter></defs><g><text fill="#000000" font-family="sans-serif" font-size="18" lengthAdjust="spacing" textLength="251" x="313.75" y="17.4023">Literate Code Map Generator</text><!--MD5=[c4f64472b2a7a9bb03f7c9dfd2803c84]
class LiterateCodeBuilder--><rect codeLine="11" fill="#FEFECE" filter="url(#fgc6k8becd71p)" height="48" id="LiterateCodeBuilder" style="stroke:#A80036;stroke-width:1.5;" width="145" x="7" y="153.1992"/><ellipse cx="22" cy="169.1992" fill="#B4A7E5" rx="11" ry="11" style="stroke:#A80036;stroke-width:1.0;"/><path d="M18.4277,165.4644 L18.4277,163.3062 L25.8071,163.3062 L25.8071,165.4644 L23.3418,165.4644 L23.3418,173.541 L25.8071,173.541 L25.8071,175.6992 L18.4277,175.6992 L18.4277,173.541 L20.8931,173.541 L20.8931,165.4644 Z " fill="#000000"/><text fill="#000000" font-family="sans-serif" font-size="12" font-style="italic" lengthAdjust="spacing" textLength="113" x="36" y="173.7344">LiterateCodeBuilder</text><line style="stroke:#A80036;stroke-width:1.5;" x1="8" x2="151" y1="185.1992" y2="185.1992"/><line style="stroke:#A80036;stroke-width:1.5;" x1="8" x2="151" y1="193.1992" y2="193.1992"/><!--MD5=[9ed48168fc319d316536c977dd7043f4]
class PlantUMLBuilder--><rect codeLine="12" fill="#FEFECE" filter="url(#fgc6k8becd71p)" height="48" id="PlantUMLBuilder" style="stroke:#A80036;stroke-width:1.5;" width="124" x="17.5" y="262.1992"/><ellipse cx="32.5" cy="278.1992" fill="#ADD1B2" rx="11" ry="11" style="stroke:#A80036;stroke-width:1.0;"/><path d="M34.9731,284.3423 Q34.3921,284.6411 33.7529,284.7905 Q33.1138,284.9399 32.4082,284.9399 Q29.9014,284.9399 28.5815,283.2881 Q27.2617,281.6362 27.2617,278.5151 Q27.2617,275.3857 28.5815,273.7339 Q29.9014,272.082 32.4082,272.082 Q33.1138,272.082 33.7612,272.2314 Q34.4087,272.3809 34.9731,272.6797 L34.9731,275.4023 Q34.3423,274.8213 33.7488,274.5515 Q33.1553,274.2817 32.5244,274.2817 Q31.1797,274.2817 30.4949,275.3484 Q29.8101,276.415 29.8101,278.5151 Q29.8101,280.6069 30.4949,281.6736 Q31.1797,282.7402 32.5244,282.7402 Q33.1553,282.7402 33.7488,282.4705 Q34.3423,282.2007 34.9731,281.6196 Z " fill="#000000"/><text fill="#000000" font-family="sans-serif" font-size="12" lengthAdjust="spacing" textLength="92" x="46.5" y="282.7344">PlantUMLBuilder</text><line style="stroke:#A80036;stroke-width:1.5;" x1="18.5" x2="140.5" y1="294.1992" y2="294.1992"/><line style="stroke:#A80036;stroke-width:1.5;" x1="18.5" x2="140.5" y1="302.1992" y2="302.1992"/><!--MD5=[e41fb6c9108266450b40616d64bb8543]
class LiterateCodeMapGenerator--><rect codeLine="13" fill="#FEFECE" filter="url(#fgc6k8becd71p)" height="48" id="LiterateCodeMapGenerator" style="stroke:#A80036;stroke-width:1.5;" width="188" x="389.5" y="28.1992"/><ellipse cx="404.5" cy="44.1992" fill="#ADD1B2" rx="11" ry="11" style="stroke:#A80036;stroke-width:1.0;"/><path d="M406.9731,50.3423 Q406.3921,50.6411 405.7529,50.7905 Q405.1138,50.9399 404.4082,50.9399 Q401.9014,50.9399 400.5815,49.2881 Q399.2617,47.6362 399.2617,44.5151 Q399.2617,41.3857 400.5815,39.7339 Q401.9014,38.082 404.4082,38.082 Q405.1138,38.082 405.7612,38.2314 Q406.4087,38.3809 406.9731,38.6797 L406.9731,41.4023 Q406.3423,40.8213 405.7488,40.5515 Q405.1553,40.2817 404.5244,40.2817 Q403.1797,40.2817 402.4949,41.3484 Q401.8101,42.415 401.8101,44.5151 Q401.8101,46.6069 402.4949,47.6736 Q403.1797,48.7402 404.5244,48.7402 Q405.1553,48.7402 405.7488,48.4705 Q406.3423,48.2007 406.9731,47.6196 Z " fill="#000000"/><text fill="#000000" font-family="sans-serif" font-size="12" lengthAdjust="spacing" textLength="156" x="418.5" y="48.7344">LiterateCodeMapGenerator</text><line style="stroke:#A80036;stroke-width:1.5;" x1="390.5" x2="576.5" y1="60.1992" y2="60.1992"/><line style="stroke:#A80036;stroke-width:1.5;" x1="390.5" x2="576.5" y1="68.1992" y2="68.1992"/><!--MD5=[b7b5fb4e634ec3b62a33c6827f76e094]
class FileSystemScanner--><rect codeLine="15" fill="#FEFECE" filter="url(#fgc6k8becd71p)" height="48" id="FileSystemScanner" style="stroke:#A80036;stroke-width:1.5;" width="136" x="223.5" y="153.1992"/><ellipse cx="238.5" cy="169.1992" fill="#ADD1B2" rx="11" ry="11" style="stroke:#A80036;stroke-width:1.0;"/><path d="M240.9731,175.3423 Q240.3921,175.6411 239.7529,175.7905 Q239.1138,175.9399 238.4082,175.9399 Q235.9014,175.9399 234.5815,174.2881 Q233.2617,172.6362 233.2617,169.5151 Q233.2617,166.3857 234.5815,164.7339 Q235.9014,163.082 238.4082,163.082 Q239.1138,163.082 239.7612,163.2314 Q240.4087,163.3809 240.9731,163.6797 L240.9731,166.4023 Q240.3423,165.8213 239.7488,165.5515 Q239.1553,165.2817 238.5244,165.2817 Q237.1797,165.2817 236.4949,166.3484 Q235.8101,167.415 235.8101,169.5151 Q235.8101,171.6069 236.4949,172.6736 Q237.1797,173.7402 238.5244,173.7402 Q239.1553,173.7402 239.7488,173.4705 Q240.3423,173.2007 240.9731,172.6196 Z " fill="#000000"/><text fill="#000000" font-family="sans-serif" font-size="12" lengthAdjust="spacing" textLength="104" x="252.5" y="173.7344">FileSystemScanner</text><line style="stroke:#A80036;stroke-width:1.5;" x1="224.5" x2="358.5" y1="185.1992" y2="185.1992"/><line style="stroke:#A80036;stroke-width:1.5;" x1="224.5" x2="358.5" y1="193.1992" y2="193.1992"/><!--MD5=[fa4bcdc057af520fabbe858b6033a145]
class JavaAnalyzer--><rect codeLine="9" fill="#FEFECE" filter="url(#fgc6k8becd71p)" height="48" id="JavaAnalyzer" style="stroke:#A80036;stroke-width:1.5;" width="106" x="430.5" y="153.1992"/><ellipse cx="445.5" cy="169.1992" fill="#ADD1B2" rx="11" ry="11" style="stroke:#A80036;stroke-width:1.0;"/><path d="M447.9731,175.3423 Q447.3921,175.6411 446.7529,175.7905 Q446.1138,175.9399 445.4082,175.9399 Q442.9014,175.9399 441.5815,174.2881 Q440.2617,172.6362 440.2617,169.5151 Q440.2617,166.3857 441.5815,164.7339 Q442.9014,163.082 445.4082,163.082 Q446.1138,163.082 446.7612,163.2314 Q447.4087,163.3809 447.9731,163.6797 L447.9731,166.4023 Q447.3423,165.8213 446.7488,165.5515 Q446.1553,165.2817 445.5244,165.2817 Q444.1797,165.2817 443.4949,166.3484 Q442.8101,167.415 442.8101,169.5151 Q442.8101,171.6069 443.4949,172.6736 Q444.1797,173.7402 445.5244,173.7402 Q446.1553,173.7402 446.7488,173.4705 Q447.3423,173.2007 447.9731,172.6196 Z " fill="#000000"/><text fill="#000000" font-family="sans-serif" font-size="12" lengthAdjust="spacing" textLength="74" x="459.5" y="173.7344">JavaAnalyzer</text><line style="stroke:#A80036;stroke-width:1.5;" x1="431.5" x2="535.5" y1="185.1992" y2="185.1992"/><line style="stroke:#A80036;stroke-width:1.5;" x1="431.5" x2="535.5" y1="193.1992" y2="193.1992"/><!--MD5=[195181b9cf2ef68efb322224a92c8602]
class BoxesFilter--><rect codeLine="10" fill="#FEFECE" filter="url(#fgc6k8becd71p)" height="48" id="BoxesFilter" style="stroke:#A80036;stroke-width:1.5;" width="94" x="583.5" y="153.1992"/><ellipse cx="598.5" cy="169.1992" fill="#ADD1B2" rx="11" ry="11" style="stroke:#A80036;stroke-width:1.0;"/><path d="M600.9731,175.3423 Q600.3921,175.6411 599.7529,175.7905 Q599.1138,175.9399 598.4082,175.9399 Q595.9014,175.9399 594.5815,174.2881 Q593.2617,172.6362 593.2617,169.5151 Q593.2617,166.3857 594.5815,164.7339 Q595.9014,163.082 598.4082,163.082 Q599.1138,163.082 599.7612,163.2314 Q600.4087,163.3809 600.9731,163.6797 L600.9731,166.4023 Q600.3423,165.8213 599.7488,165.5515 Q599.1553,165.2817 598.5244,165.2817 Q597.1797,165.2817 596.4949,166.3484 Q595.8101,167.415 595.8101,169.5151 Q595.8101,171.6069 596.4949,172.6736 Q597.1797,173.7402 598.5244,173.7402 Q599.1553,173.7402 599.7488,173.4705 Q600.3423,173.2007 600.9731,172.6196 Z " fill="#000000"/><text fill="#000000" font-family="sans-serif" font-size="12" lengthAdjust="spacing" textLength="62" x="612.5" y="173.7344">BoxesFilter</text><line style="stroke:#A80036;stroke-width:1.5;" x1="584.5" x2="676.5" y1="185.1992" y2="185.1992"/><line style="stroke:#A80036;stroke-width:1.5;" x1="584.5" x2="676.5" y1="193.1992" y2="193.1992"/><!--MD5=[bc147447a2fab3fee7bbbcd79de6476f]
class PlantUMLGenerator--><rect codeLine="14" fill="#FEFECE" filter="url(#fgc6k8becd71p)" height="48" id="PlantUMLGenerator" style="stroke:#A80036;stroke-width:1.5;" width="142" x="712.5" y="153.1992"/><ellipse cx="727.5" cy="169.1992" fill="#ADD1B2" rx="11" ry="11" style="stroke:#A80036;stroke-width:1.0;"/><path d="M729.9731,175.3423 Q729.3921,175.6411 728.7529,175.7905 Q728.1138,175.9399 727.4082,175.9399 Q724.9014,175.9399 723.5815,174.2881 Q722.2617,172.6362 722.2617,169.5151 Q722.2617,166.3857 723.5815,164.7339 Q724.9014,163.082 727.4082,163.082 Q728.1138,163.082 728.7612,163.2314 Q729.4087,163.3809 729.9731,163.6797 L729.9731,166.4023 Q729.3423,165.8213 728.7488,165.5515 Q728.1553,165.2817 727.5244,165.2817 Q726.1797,165.2817 725.4949,166.3484 Q724.8101,167.415 724.8101,169.5151 Q724.8101,171.6069 725.4949,172.6736 Q726.1797,173.7402 727.5244,173.7402 Q728.1553,173.7402 728.7488,173.4705 Q729.3423,173.2007 729.9731,172.6196 Z " fill="#000000"/><text fill="#000000" font-family="sans-serif" font-size="12" lengthAdjust="spacing" textLength="110" x="741.5" y="173.7344">PlantUMLGenerator</text><line style="stroke:#A80036;stroke-width:1.5;" x1="713.5" x2="853.5" y1="185.1992" y2="185.1992"/><line style="stroke:#A80036;stroke-width:1.5;" x1="713.5" x2="853.5" y1="193.1992" y2="193.1992"/><!--MD5=[60a7bc7929e2fc649d806125fb12b61f]
reverse link LiterateCodeBuilder to PlantUMLBuilder--><path codeLine="3" d="M79.5,221.7792 C79.5,235.5592 79.5,250.2592 79.5,262.0292 " fill="none" id="LiterateCodeBuilder-backto-PlantUMLBuilder" style="stroke:#A80036;stroke-width:1.0;"/><polygon fill="none" points="72.5,221.4192,79.5,201.4192,86.5,221.4192,72.5,221.4192" style="stroke:#A80036;stroke-width:1.0;"/><!--MD5=[da3623f972d82fc0f18aa35c48d00488]
link LiterateCodeMapGenerator to FileSystemScanner--><path codeLine="4" d="M389.46,68.8792 C364.71,76.7392 339.62,88.5192 320.5,106.1992 C308.63,117.1792 301.47,133.7492 297.24,148.0092 " fill="none" id="LiterateCodeMapGenerator-to-FileSystemScanner" style="stroke:#A80036;stroke-width:1.0;"/><polygon fill="#A80036" points="295.81,153.1492,302.0752,145.55,297.1497,148.332,294.3677,143.4065,295.81,153.1492" style="stroke:#A80036;stroke-width:1.0;"/><text fill="#000000" font-family="sans-serif" font-size="13" lengthAdjust="spacing" textLength="150" x="321.5" y="119.7676">1. scanBaseDirectories()</text><!--MD5=[3575656874806a1fc148b8916a0ca9f8]
link LiterateCodeMapGenerator to JavaAnalyzer--><path codeLine="5" d="M481.69,76.2092 C480.82,89.8592 480.06,107.5092 480.5,123.1992 C480.72,131.1292 481.14,139.7292 481.59,147.6392 " fill="none" id="LiterateCodeMapGenerator-to-JavaAnalyzer" style="stroke:#A80036;stroke-width:1.0;"/><polygon fill="#A80036" points="481.9,152.9892,485.3785,143.7751,481.6139,147.9974,477.3916,144.2328,481.9,152.9892" style="stroke:#A80036;stroke-width:1.0;"/><text fill="#000000" font-family="sans-serif" font-size="13" lengthAdjust="spacing" textLength="105" x="481.5" y="119.7676">2. extractInfo(...)</text><!--MD5=[5c3e641df0b7c6fa1a124cc561f5601b]
link LiterateCodeMapGenerator to BoxesFilter--><path codeLine="6" d="M546.73,76.3292 C562.58,84.1492 578.7,94.0492 591.5,106.1992 C603.83,117.8992 613.27,134.3792 619.78,148.4092 " fill="none" id="LiterateCodeMapGenerator-to-BoxesFilter" style="stroke:#A80036;stroke-width:1.0;"/><polygon fill="#A80036" points="621.87,153.0592,621.85,143.2104,619.83,148.4943,614.5461,146.4743,621.87,153.0592" style="stroke:#A80036;stroke-width:1.0;"/><text fill="#000000" font-family="sans-serif" font-size="13" lengthAdjust="spacing" textLength="92" x="606.5" y="119.7676">3. filter(boxes)</text><!--MD5=[d08a513b211cce66d33be2d3b7c16047]
link LiterateCodeMapGenerator to LiterateCodeBuilder--><path codeLine="7" d="M389.48,58.8692 C299.37,65.7792 170.96,79.9292 128.5,106.1992 C112.38,116.1692 100.15,133.6292 91.93,148.6192 " fill="none" id="LiterateCodeMapGenerator-to-LiterateCodeBuilder" style="stroke:#A80036;stroke-width:1.0;"/><polygon fill="#A80036" points="89.51,153.1792,97.2625,147.1047,91.854,148.7627,90.1961,143.3543,89.51,153.1792" style="stroke:#A80036;stroke-width:1.0;"/><text fill="#000000" font-family="sans-serif" font-size="13" lengthAdjust="spacing" textLength="170" x="129.5" y="119.7676">4. mapBoxes(filteredBoxes)</text><!--MD5=[c51dd30eeee9e3dfc0ba3a138f91c54d]
link LiterateCodeMapGenerator to PlantUMLGenerator--><path codeLine="8" d="M577.77,64.5092 C619.3,72.1992 667.62,85.0092 707.5,106.1992 C727.8,116.9792 746.82,134.5092 760.75,149.3292 " fill="none" id="LiterateCodeMapGenerator-to-PlantUMLGenerator" style="stroke:#A80036;stroke-width:1.0;"/><polygon fill="#A80036" points="764.18,153.0292,760.9996,143.708,760.7827,149.3607,755.13,149.1437,764.18,153.0292" style="stroke:#A80036;stroke-width:1.0;"/><text fill="#000000" font-family="sans-serif" font-size="13" lengthAdjust="spacing" textLength="152" x="731.5" y="119.7676">5. generateSVGImage(...)</text><text fill="#000000" font-family="sans-serif" font-size="14" lengthAdjust="spacing" textLength="427" x="225.75" y="336.7344">This literate code map describe the main flow of the generator</text><!--MD5=[f1c56f4beb764f22547fe33d35889f33]
@startuml
title "Literate Code Map Generator"
caption "This literate code map describe the main flow of the generator"
LiterateCodeBuilder <|- - PlantUMLBuilder
LiterateCodeMapGenerator - -> FileSystemScanner : 1. scanBaseDirectories()
LiterateCodeMapGenerator - -> JavaAnalyzer : 2. extractInfo(...)
LiterateCodeMapGenerator - -> BoxesFilter : 3. filter(boxes)
LiterateCodeMapGenerator - -> LiterateCodeBuilder : 4. mapBoxes(filteredBoxes)
LiterateCodeMapGenerator - -> PlantUMLGenerator : 5. generateSVGImage(...)
class JavaAnalyzer
class BoxesFilter
interface LiterateCodeBuilder
class PlantUMLBuilder
class LiterateCodeMapGenerator
class PlantUMLGenerator
class FileSystemScanner
@enduml

PlantUML version 1.2022.0(Tue Jan 11 17:16:42 CET 2022)
(GPL source distribution)
Java Runtime: Java(TM) SE Runtime Environment
JVM: Java HotSpot(TM) 64-Bit Server VM
Default Encoding: UTF-8
Language: en
Country: GB
--></g></svg>