<?xml version="1.0" encoding="UTF-8" standalone="no"?><svg xmlns="http://www.w3.org/2000/svg" xmlns:xlink="http://www.w3.org/1999/xlink" contentScriptType="application/ecmascript" contentStyleType="text/css" height="345px" preserveAspectRatio="none" style="width:887px;height:345px;background:#FFFFFF;" version="1.1" viewBox="0 0 887 345" width="887px" zoomAndPan="magnify"><defs><filter height="300%" id="fant1kkbbkd2l" width="300%" x="-1" y="-1"><feGaussianBlur result="blurOut" stdDeviation="2.0"/><feColorMatrix in="blurOut" result="blurOut2" type="matrix" values="0 0 0 0 0 0 0 0 0 0 0 0 0 0 0 0 0 0 .4 0"/><feOffset dx="4.0" dy="4.0" in="blurOut2" result="blurOut3"/><feBlend in="SourceGraphic" in2="blurOut3" mode="normal"/></filter></defs><g><text fill="#000000" font-family="sans-serif" font-size="18" lengthAdjust="spacing" textLength="251" x="311.5" y="17.4023">Literate Code Map Generator</text><!--MD5=[e41fb6c9108266450b40616d64bb8543]
class LiterateCodeMapGenerator--><rect codeLine="10" fill="#FEFECE" filter="url(#fant1kkbbkd2l)" height="48" id="LiterateCodeMapGenerator" style="stroke:#A80036;stroke-width:1.5;" width="188" x="320" y="28.1992"/><ellipse cx="335" cy="44.1992" fill="#ADD1B2" rx="11" ry="11" style="stroke:#A80036;stroke-width:1.0;"/><path d="M337.4731,50.3423 Q336.8921,50.6411 336.2529,50.7905 Q335.6138,50.9399 334.9082,50.9399 Q332.4014,50.9399 331.0815,49.2881 Q329.7617,47.6362 329.7617,44.5151 Q329.7617,41.3857 331.0815,39.7339 Q332.4014,38.082 334.9082,38.082 Q335.6138,38.082 336.2612,38.2314 Q336.9087,38.3809 337.4731,38.6797 L337.4731,41.4023 Q336.8423,40.8213 336.2488,40.5515 Q335.6553,40.2817 335.0244,40.2817 Q333.6797,40.2817 332.9949,41.3484 Q332.3101,42.415 332.3101,44.5151 Q332.3101,46.6069 332.9949,47.6736 Q333.6797,48.7402 335.0244,48.7402 Q335.6553,48.7402 336.2488,48.4705 Q336.8423,48.2007 337.4731,47.6196 Z " fill="#000000"/><text fill="#000000" font-family="sans-serif" font-size="12" lengthAdjust="spacing" textLength="156" x="349" y="48.7344">LiterateCodeMapGenerator</text><line style="stroke:#A80036;stroke-width:1.5;" x1="321" x2="507" y1="60.1992" y2="60.1992"/><line style="stroke:#A80036;stroke-width:1.5;" x1="321" x2="507" y1="68.1992" y2="68.1992"/><!--MD5=[b7b5fb4e634ec3b62a33c6827f76e094]
class FileSystemScanner--><rect codeLine="15" fill="#FEFECE" filter="url(#fant1kkbbkd2l)" height="48" id="FileSystemScanner" style="stroke:#A80036;stroke-width:1.5;" width="136" x="7" y="153.1992"/><ellipse cx="22" cy="169.1992" fill="#ADD1B2" rx="11" ry="11" style="stroke:#A80036;stroke-width:1.0;"/><path d="M24.4731,175.3423 Q23.8921,175.6411 23.2529,175.7905 Q22.6138,175.9399 21.9082,175.9399 Q19.4014,175.9399 18.0815,174.2881 Q16.7617,172.6362 16.7617,169.5151 Q16.7617,166.3857 18.0815,164.7339 Q19.4014,163.082 21.9082,163.082 Q22.6138,163.082 23.2612,163.2314 Q23.9087,163.3809 24.4731,163.6797 L24.4731,166.4023 Q23.8423,165.8213 23.2488,165.5515 Q22.6553,165.2817 22.0244,165.2817 Q20.6797,165.2817 19.9949,166.3484 Q19.3101,167.415 19.3101,169.5151 Q19.3101,171.6069 19.9949,172.6736 Q20.6797,173.7402 22.0244,173.7402 Q22.6553,173.7402 23.2488,173.4705 Q23.8423,173.2007 24.4731,172.6196 Z " fill="#000000"/><text fill="#000000" font-family="sans-serif" font-size="12" lengthAdjust="spacing" textLength="104" x="36" y="173.7344">FileSystemScanner</text><line style="stroke:#A80036;stroke-width:1.5;" x1="8" x2="142" y1="185.1992" y2="185.1992"/><line style="stroke:#A80036;stroke-width:1.5;" x1="8" x2="142" y1="193.1992" y2="193.1992"/><!--MD5=[fa4bcdc057af520fabbe858b6033a145]
class JavaAnalyzer--><rect codeLine="8" fill="#FEFECE" filter="url(#fant1kkbbkd2l)" height="48" id="JavaAnalyzer" style="stroke:#A80036;stroke-width:1.5;" width="106" x="214" y="153.1992"/><ellipse cx="229" cy="169.1992" fill="#ADD1B2" rx="11" ry="11" style="stroke:#A80036;stroke-width:1.0;"/><path d="M231.4731,175.3423 Q230.8921,175.6411 230.2529,175.7905 Q229.6138,175.9399 228.9082,175.9399 Q226.4014,175.9399 225.0815,174.2881 Q223.7617,172.6362 223.7617,169.5151 Q223.7617,166.3857 225.0815,164.7339 Q226.4014,163.082 228.9082,163.082 Q229.6138,163.082 230.2612,163.2314 Q230.9087,163.3809 231.4731,163.6797 L231.4731,166.4023 Q230.8423,165.8213 230.2488,165.5515 Q229.6553,165.2817 229.0244,165.2817 Q227.6797,165.2817 226.9949,166.3484 Q226.3101,167.415 226.3101,169.5151 Q226.3101,171.6069 226.9949,172.6736 Q227.6797,173.7402 229.0244,173.7402 Q229.6553,173.7402 230.2488,173.4705 Q230.8423,173.2007 231.4731,172.6196 Z " fill="#000000"/><text fill="#000000" font-family="sans-serif" font-size="12" lengthAdjust="spacing" textLength="74" x="243" y="173.7344">JavaAnalyzer</text><line style="stroke:#A80036;stroke-width:1.5;" x1="215" x2="319" y1="185.1992" y2="185.1992"/><line style="stroke:#A80036;stroke-width:1.5;" x1="215" x2="319" y1="193.1992" y2="193.1992"/><!--MD5=[195181b9cf2ef68efb322224a92c8602]
class BoxesFilter--><rect codeLine="9" fill="#FEFECE" filter="url(#fant1kkbbkd2l)" height="48" id="BoxesFilter" style="stroke:#A80036;stroke-width:1.5;" width="94" x="367" y="153.1992"/><ellipse cx="382" cy="169.1992" fill="#ADD1B2" rx="11" ry="11" style="stroke:#A80036;stroke-width:1.0;"/><path d="M384.4731,175.3423 Q383.8921,175.6411 383.2529,175.7905 Q382.6138,175.9399 381.9082,175.9399 Q379.4014,175.9399 378.0815,174.2881 Q376.7617,172.6362 376.7617,169.5151 Q376.7617,166.3857 378.0815,164.7339 Q379.4014,163.082 381.9082,163.082 Q382.6138,163.082 383.2612,163.2314 Q383.9087,163.3809 384.4731,163.6797 L384.4731,166.4023 Q383.8423,165.8213 383.2488,165.5515 Q382.6553,165.2817 382.0244,165.2817 Q380.6797,165.2817 379.9949,166.3484 Q379.3101,167.415 379.3101,169.5151 Q379.3101,171.6069 379.9949,172.6736 Q380.6797,173.7402 382.0244,173.7402 Q382.6553,173.7402 383.2488,173.4705 Q383.8423,173.2007 384.4731,172.6196 Z " fill="#000000"/><text fill="#000000" font-family="sans-serif" font-size="12" lengthAdjust="spacing" textLength="62" x="396" y="173.7344">BoxesFilter</text><line style="stroke:#A80036;stroke-width:1.5;" x1="368" x2="460" y1="185.1992" y2="185.1992"/><line style="stroke:#A80036;stroke-width:1.5;" x1="368" x2="460" y1="193.1992" y2="193.1992"/><!--MD5=[c4f64472b2a7a9bb03f7c9dfd2803c84]
class LiterateCodeBuilder--><rect codeLine="11" fill="#FEFECE" filter="url(#fant1kkbbkd2l)" height="48" id="LiterateCodeBuilder" style="stroke:#A80036;stroke-width:1.5;" width="145" x="496.5" y="153.1992"/><ellipse cx="511.5" cy="169.1992" fill="#B4A7E5" rx="11" ry="11" style="stroke:#A80036;stroke-width:1.0;"/><path d="M507.9277,165.4644 L507.9277,163.3062 L515.3071,163.3062 L515.3071,165.4644 L512.8418,165.4644 L512.8418,173.541 L515.3071,173.541 L515.3071,175.6992 L507.9277,175.6992 L507.9277,173.541 L510.3931,173.541 L510.3931,165.4644 Z " fill="#000000"/><text fill="#000000" font-family="sans-serif" font-size="12" font-style="italic" lengthAdjust="spacing" textLength="113" x="525.5" y="173.7344">LiterateCodeBuilder</text><line style="stroke:#A80036;stroke-width:1.5;" x1="497.5" x2="640.5" y1="185.1992" y2="185.1992"/><line style="stroke:#A80036;stroke-width:1.5;" x1="497.5" x2="640.5" y1="193.1992" y2="193.1992"/><!--MD5=[bc147447a2fab3fee7bbbcd79de6476f]
class PlantUMLGenerator--><rect codeLine="14" fill="#FEFECE" filter="url(#fant1kkbbkd2l)" height="48" id="PlantUMLGenerator" style="stroke:#A80036;stroke-width:1.5;" width="142" x="689" y="153.1992"/><ellipse cx="704" cy="169.1992" fill="#ADD1B2" rx="11" ry="11" style="stroke:#A80036;stroke-width:1.0;"/><path d="M706.4731,175.3423 Q705.8921,175.6411 705.2529,175.7905 Q704.6138,175.9399 703.9082,175.9399 Q701.4014,175.9399 700.0815,174.2881 Q698.7617,172.6362 698.7617,169.5151 Q698.7617,166.3857 700.0815,164.7339 Q701.4014,163.082 703.9082,163.082 Q704.6138,163.082 705.2612,163.2314 Q705.9087,163.3809 706.4731,163.6797 L706.4731,166.4023 Q705.8423,165.8213 705.2488,165.5515 Q704.6553,165.2817 704.0244,165.2817 Q702.6797,165.2817 701.9949,166.3484 Q701.3101,167.415 701.3101,169.5151 Q701.3101,171.6069 701.9949,172.6736 Q702.6797,173.7402 704.0244,173.7402 Q704.6553,173.7402 705.2488,173.4705 Q705.8423,173.2007 706.4731,172.6196 Z " fill="#000000"/><text fill="#000000" font-family="sans-serif" font-size="12" lengthAdjust="spacing" textLength="110" x="718" y="173.7344">PlantUMLGenerator</text><line style="stroke:#A80036;stroke-width:1.5;" x1="690" x2="830" y1="185.1992" y2="185.1992"/><line style="stroke:#A80036;stroke-width:1.5;" x1="690" x2="830" y1="193.1992" y2="193.1992"/><!--MD5=[9ed48168fc319d316536c977dd7043f4]
class PlantUMLBuilder--><rect codeLine="12" fill="#FEFECE" filter="url(#fant1kkbbkd2l)" height="48" id="PlantUMLBuilder" style="stroke:#A80036;stroke-width:1.5;" width="124" x="507" y="262.1992"/><ellipse cx="522" cy="278.1992" fill="#ADD1B2" rx="11" ry="11" style="stroke:#A80036;stroke-width:1.0;"/><path d="M524.4731,284.3423 Q523.8921,284.6411 523.2529,284.7905 Q522.6138,284.9399 521.9082,284.9399 Q519.4014,284.9399 518.0815,283.2881 Q516.7617,281.6362 516.7617,278.5151 Q516.7617,275.3857 518.0815,273.7339 Q519.4014,272.082 521.9082,272.082 Q522.6138,272.082 523.2612,272.2314 Q523.9087,272.3809 524.4731,272.6797 L524.4731,275.4023 Q523.8423,274.8213 523.2488,274.5515 Q522.6553,274.2817 522.0244,274.2817 Q520.6797,274.2817 519.9949,275.3484 Q519.3101,276.415 519.3101,278.5151 Q519.3101,280.6069 519.9949,281.6736 Q520.6797,282.7402 522.0244,282.7402 Q522.6553,282.7402 523.2488,282.4705 Q523.8423,282.2007 524.4731,281.6196 Z " fill="#000000"/><text fill="#000000" font-family="sans-serif" font-size="12" lengthAdjust="spacing" textLength="92" x="536" y="282.7344">PlantUMLBuilder</text><line style="stroke:#A80036;stroke-width:1.5;" x1="508" x2="630" y1="294.1992" y2="294.1992"/><line style="stroke:#A80036;stroke-width:1.5;" x1="508" x2="630" y1="302.1992" y2="302.1992"/><!--MD5=[da3623f972d82fc0f18aa35c48d00488]
link LiterateCodeMapGenerator to FileSystemScanner--><path codeLine="3" d="M319.73,62.6192 C247.82,71.2292 155.88,85.7492 124,106.1992 C108.16,116.3592 95.98,133.6492 87.73,148.4992 " fill="none" id="LiterateCodeMapGenerator-to-FileSystemScanner" style="stroke:#A80036;stroke-width:1.0;"/><polygon fill="#A80036" points="85.3,153.0192,93.0911,146.9944,87.6722,148.6178,86.0488,143.1989,85.3,153.0192" style="stroke:#A80036;stroke-width:1.0;"/><text fill="#000000" font-family="sans-serif" font-size="13" lengthAdjust="spacing" textLength="150" x="125" y="119.7676">1. scanBaseDirectories()</text><!--MD5=[3575656874806a1fc148b8916a0ca9f8]
link LiterateCodeMapGenerator to JavaAnalyzer--><path codeLine="4" d="M339.89,76.2092 C323.92,83.7992 308.2,93.6292 296,106.1992 C284.9,117.6292 277.81,133.9192 273.42,147.8992 " fill="none" id="LiterateCodeMapGenerator-to-JavaAnalyzer" style="stroke:#A80036;stroke-width:1.0;"/><polygon fill="#A80036" points="271.93,152.9392,278.3106,145.4367,273.3431,148.1431,270.6368,143.1756,271.93,152.9392" style="stroke:#A80036;stroke-width:1.0;"/><text fill="#000000" font-family="sans-serif" font-size="13" lengthAdjust="spacing" textLength="105" x="297" y="119.7676">2. extractInfo(...)</text><!--MD5=[5c3e641df0b7c6fa1a124cc561f5601b]
link LiterateCodeMapGenerator to BoxesFilter--><path codeLine="5" d="M412.19,76.2092 C411.32,89.8592 410.56,107.5092 411,123.1992 C411.22,131.1292 411.64,139.7292 412.09,147.6392 " fill="none" id="LiterateCodeMapGenerator-to-BoxesFilter" style="stroke:#A80036;stroke-width:1.0;"/><polygon fill="#A80036" points="412.4,152.9892,415.8785,143.7751,412.1139,147.9974,407.8916,144.2328,412.4,152.9892" style="stroke:#A80036;stroke-width:1.0;"/><text fill="#000000" font-family="sans-serif" font-size="13" lengthAdjust="spacing" textLength="92" x="412" y="119.7676">3. filter(boxes)</text><!--MD5=[d08a513b211cce66d33be2d3b7c16047]
link LiterateCodeMapGenerator to LiterateCodeBuilder--><path codeLine="6" d="M462.98,76.2392 C478.45,84.6092 495.11,94.8392 509,106.1992 C524.05,118.5092 538.32,134.8892 549.17,148.7092 " fill="none" id="LiterateCodeMapGenerator-to-LiterateCodeBuilder" style="stroke:#A80036;stroke-width:1.0;"/><polygon fill="#A80036" points="552.42,152.9092,550.0831,143.3416,549.3632,148.9525,543.7523,148.2326,552.42,152.9092" style="stroke:#A80036;stroke-width:1.0;"/><text fill="#000000" font-family="sans-serif" font-size="13" lengthAdjust="spacing" textLength="170" x="527" y="119.7676">4. mapBoxes(filteredBoxes)</text><!--MD5=[c51dd30eeee9e3dfc0ba3a138f91c54d]
link LiterateCodeMapGenerator to PlantUMLGenerator--><path codeLine="7" d="M508.3,62.9092 C580.61,71.7092 673.37,86.3492 706,106.1992 C722.64,116.3192 736.05,133.6092 745.34,148.4592 " fill="none" id="LiterateCodeMapGenerator-to-PlantUMLGenerator" style="stroke:#A80036;stroke-width:1.0;"/><polygon fill="#A80036" points="748.09,152.9892,746.8273,143.2216,745.4903,148.7182,739.9937,147.3812,748.09,152.9892" style="stroke:#A80036;stroke-width:1.0;"/><text fill="#000000" font-family="sans-serif" font-size="13" lengthAdjust="spacing" textLength="152" x="727" y="119.7676">5. generateSVGImage(...)</text><!--MD5=[60a7bc7929e2fc649d806125fb12b61f]
reverse link LiterateCodeBuilder to PlantUMLBuilder--><path codeLine="13" d="M569,221.7792 C569,235.5592 569,250.2592 569,262.0292 " fill="none" id="LiterateCodeBuilder-backto-PlantUMLBuilder" style="stroke:#A80036;stroke-width:1.0;"/><polygon fill="none" points="562,221.4192,569,201.4192,576,221.4192,562,221.4192" style="stroke:#A80036;stroke-width:1.0;"/><text fill="#000000" font-family="sans-serif" font-size="14" lengthAdjust="spacing" textLength="427" x="223.5" y="336.7344">This literate code map describe the main flow of the generator</text><!--MD5=[e8f76973d47c2bf0582a0e7fd1ad0dc5]
@startuml
title "Literate Code Map Generator"
caption "This literate code map describe the main flow of the generator"
LiterateCodeMapGenerator - -> FileSystemScanner : 1. scanBaseDirectories()
LiterateCodeMapGenerator - -> JavaAnalyzer : 2. extractInfo(...)
LiterateCodeMapGenerator - -> BoxesFilter : 3. filter(boxes)
LiterateCodeMapGenerator - -> LiterateCodeBuilder : 4. mapBoxes(filteredBoxes)
LiterateCodeMapGenerator - -> PlantUMLGenerator : 5. generateSVGImage(...)
class JavaAnalyzer
class BoxesFilter
class LiterateCodeMapGenerator
interface LiterateCodeBuilder
class PlantUMLBuilder
LiterateCodeBuilder <|- - PlantUMLBuilder
class PlantUMLGenerator
class FileSystemScanner
@enduml

PlantUML version 1.2022.0(Tue Jan 11 17:16:42 CET 2022)
(GPL source distribution)
Java Runtime: Java(TM) SE Runtime Environment
JVM: Java HotSpot(TM) 64-Bit Server VM
Default Encoding: UTF-8
Language: en
Country: GB
--></g></svg>